Coordinates
version=1
nRows=30
nColumns=30
inDegrees=yes

Units are S.I. units (second, meters, Newtons, ...)
Angles are in degrees.

endheader
time	floatyaw	floatroll	floatpitch	floatx	floaty	floatz	pro_sup_l	deviation_l	flexion_l	cmc_flexion_l	cmc_abduction_l	mp_flexion_l	ip_flexion_l	2mcp_flexion_l	2mcp_abduction_l	2pm_flexion_l	2md_flexion_l	3mcp_flexion_l	3mcp_abduction_l	3pm_flexion_l	3md_flexion_l	4mcp_flexion_l	4mcp_abduction_l	4pm_flexion_l	4md_flexion_l	5mcp_flexion_l	5mcp_abduction_l	5pm_flexion_l	5md_flexion_l
-1.495000	-1.847142	-2.057261	94.906514	-0.007089	-0.271698	0.012312	90.098330	0.892951	-1.163096	26.489661	2.291886	-18.360870	-33.491102	19.889203	5.784317	31.879556	20.486960	8.954906	4.215023	34.530807	22.261007	-1.999302	-3.758711	50.998781	33.725506	-21.036199	-7.929829	60.361486	49.814235
-1.485000	-1.847142	-2.057261	94.906514	-0.007117	-0.271731	0.012376	90.077680	0.873165	-1.162558	26.489190	2.285111	-18.385400	-33.498857	19.931920	5.780907	31.816645	20.453000	8.977532	4.206148	34.468245	22.229903	-2.028466	-3.747207	50.970000	33.721947	-21.103794	-7.932620	60.315977	49.853079
-1.475000	-1.847142	-2.057261	94.906514	-0.007134	-0.271760	0.012435	90.071744	0.857404	-1.168652	26.513309	2.277875	-18.418192	-33.532172	19.971803	5.780961	31.774336	20.426055	9.004656	4.200045	34.419554	22.199010	-2.045043	-3.733148	50.954494	33.723366	-21.145416	-7.937748	60.268100	49.895894
-1.465000	-1.847142	-2.057261	94.906514	-0.007137	-0.271775	0.012481	90.088352	0.850555	-1.180701	26.561438	2.262877	-18.453694	-33.588489	20.003274	5.784291	31.756089	20.413795	9.033023	4.196820	34.389529	22.176154	-2.044804	-3.720156	50.951644	33.730173	-21.151712	-7.943082	60.232726	49.932561
-1.455000	-1.847142	-2.057261	94.906514	-0.007129	-0.271774	0.012506	90.126494	0.854932	-1.196363	26.625306	2.240240	-18.485589	-33.659995	20.022981	5.788918	31.760556	20.417251	9.059328	4.196386	34.379288	22.165825	-2.029582	-3.711374	50.959994	33.741928	-21.126167	-7.947450	60.223242	49.956232
-1.445000	-1.847142	-2.057261	94.906514	-0.007108	-0.271757	0.012506	90.176184	0.869601	-1.212285	26.689941	2.218863	-18.507545	-33.734405	20.029735	5.792344	31.784332	20.431747	9.079993	4.198558	34.388720	22.168820	-2.006843	-3.708892	50.979310	33.757835	-21.081911	-7.951140	60.247579	49.965113
-1.435000	-1.847142	-2.057261	94.906514	-0.007078	-0.271727	0.012480	90.223021	0.891020	-1.225188	26.738282	2.211780	-18.514742	-33.797029	20.024585	5.792865	31.823394	20.450426	9.092081	4.202905	34.417064	22.182880	-1.985666	-3.713505	51.009880	33.776739	-21.034184	-7.955451	60.306095	49.961669
-1.425000	-1.847142	-2.057261	94.906514	-0.007041	-0.271692	0.012435	90.254802	0.914509	-1.232838	26.757747	2.228104	-18.505723	-33.834271	20.010928	5.790209	31.872533	20.467704	9.094764	4.208561	34.461499	22.203506	-1.971953	-3.724710	51.049919	33.796651	-20.993594	-7.961586	60.391976	49.949870
-1.415000	-1.847142	-2.057261	94.906514	-0.007004	-0.271656	0.012377	90.266274	0.935696	-1.234406	26.745333	2.266725	-18.483255	-33.837811	19.993650	5.785234	31.924313	20.480935	9.089746	4.214312	34.515594	22.225118	-1.966367	-3.740827	51.093741	33.814513	-20.964256	-7.969430	60.493404	49.932028
-1.405000	-1.847142	-2.057261	94.906514	-0.006972	-0.271621	0.012318	90.259641	0.951364	-1.230152	26.708420	2.315822	-18.453310	-33.807797	19.976916	5.778988	31.969667	20.490225	9.079830	4.219001	34.569622	22.242961	-1.966116	-3.759174	51.132597	33.826862	-20.946538	-7.976987	60.595893	49.907326
-1.395000	-1.847142	-2.057261	94.906514	-0.006952	-0.271592	0.012266	90.241302	0.959717	-1.220925	26.660872	2.358636	-18.422624	-33.753321	19.961747	5.771789	32.000713	20.497436	9.066684	4.221932	34.613195	22.255299	-1.968554	-3.776356	51.158114	33.831310	-20.940704	-7.981084	60.684039	49.873339
-1.385000	-1.847142	-2.057261	94.906514	-0.006947	-0.271571	0.012228	90.217389	0.960375	-1.207885	26.616587	2.382076	-18.396230	-33.689336	19.945245	5.762988	32.014260	20.505257	9.049699	4.223004	34.638981	22.264458	-1.973690	-3.788841	51.166512	33.827871	-20.948116	-7.979201	60.743577	49.829531
-1.375000	-1.847142	-2.057261	94.906514	-0.006958	-0.271562	0.012206	90.191084	0.954360	-1.192482	26.583974	2.382892	-18.376222	-33.631019	19.922240	5.751635	32.013665	20.516523	9.026913	4.222573	34.645453	22.275560	-1.983953	-3.793851	51.161002	33.819011	-20.969520	-7.971318	60.764639	49.779782
-1.365000	-1.847142	-2.057261	94.906514	-0.006980	-0.271567	0.012196	90.163190	0.944048	-1.176578	26.564193	2.367783	-18.362049	-33.588344	19.888600	5.737652	32.007685	20.533339	8.997440	4.221171	34.637215	22.293170	-2.001519	-3.790263	51.150513	33.808191	-21.002218	-7.960364	60.745406	49.731760
-1.355000	-1.847142	-2.057261	94.906514	-0.007004	-0.271582	0.012192	90.134877	0.932843	-1.162629	26.553620	2.348144	-18.351753	-33.563682	19.844457	5.722686	32.006795	20.555728	8.963778	4.219211	34.622831	22.317651	-2.025042	-3.779047	51.145086	33.797892	-21.038529	-7.950755	60.693918	49.693826
-1.345000	-1.847142	-2.057261	94.906514	-0.007022	-0.271604	0.012188	90.109753	0.924372	-1.153635	26.548320	2.333580	-18.343403	-33.553286	19.795523	5.709948	32.018805	20.580310	8.932254	4.216732	34.611415	22.343518	-2.048262	-3.762933	51.150626	33.788524	-21.067334	-7.945874	60.626378	49.672151
-1.335000	-1.847142	-2.057261	94.906514	-0.007031	-0.271626	0.012179	90.093163	0.921324	-1.152507	26.547407	2.328177	-18.336275	-33.551117	19.751482	5.702938	32.045954	20.600257	8.910931	4.213332	34.609566	22.361156	-2.061901	-3.745429	51.166297	33.778818	-21.078453	-7.946222	60.562237	49.669871
-1.325000	-1.847142	-2.057261	94.906514	-0.007029	-0.271645	0.012166	90.089295	0.924539	-1.160904	26.553346	2.330673	-18.331440	-33.552377	19.722072	5.703789	32.084715	20.607406	8.905993	4.208370	34.619709	22.361300	-2.058038	-3.729653	51.185999	33.767212	-21.067231	-7.949478	60.518089	49.687732
-1.315000	-1.847142	-2.057261	94.906514	-0.007019	-0.271660	0.012150	90.098498	0.932905	-1.178141	26.569242	2.337154	-18.331262	-33.554582	19.712885	5.712198	32.128136	20.595884	8.918691	4.201360	34.640266	22.339801	-2.034552	-3.717547	51.202847	33.753264	-21.036230	-7.952215	60.502794	49.724525
-1.305000	-1.847142	-2.057261	94.906514	-0.007005	-0.271671	0.012134	90.116674	0.944032	-1.200783	26.594825	2.344204	-18.337610	-33.556014	19.723019	5.725550	32.169331	20.565106	8.944415	4.192369	34.667460	22.299818	-1.997392	-3.709800	51.213913	33.738338	-20.993327	-7.951859	60.515557	49.776548
-1.295000	-1.847142	-2.057261	94.906514	-0.006989	-0.271678	0.012123	90.136844	0.955236	-1.223203	26.623870	2.350820	-18.349710	-33.553493	19.745505	5.740028	32.204400	20.520283	8.974038	4.182229	34.697993	22.250269	-1.959644	-3.706327	51.222538	33.725298	-20.948366	-7.947555	60.547561	49.836944
-1.285000	-1.847142	-2.057261	94.906514	-0.006974	-0.271680	0.012117	90.151797	0.964332	-1.238950	26.645233	2.358196	-18.363173	-33.541894	19.769897	5.752009	32.233634	20.470392	8.996512	4.172402	34.731232	22.201891	-1.937584	-3.706835	51.237019	33.717393	-20.910843	-7.939763	60.586474	49.896178
-1.275000	-1.847142	-2.057261	94.906514	-0.006959	-0.271675	0.012115	90.156655	0.970110	-1.242634	26.647579	2.367684	-18.371202	-33.516245	19.785685	5.759113	32.260760	20.425132	9.001820	4.164469	34.769480	22.163418	-1.944801	-3.711024	51.266385	33.716708	-20.888963	-7.929455	60.621877	49.943950
-1.265000	-1.847142	-2.057261	94.906514	-0.006944	-0.271660	0.012114	90.150569	0.972487	-1.231871	26.625558	2.378657	-18.367655	-33.475369	19.785494	5.760716	32.290744	20.392222	8.984022	4.159496	34.815793	22.139327	-1.986188	-3.718402	51.315292	33.722664	-20.888491	-7.917814	60.649067	49.971734
-1.255000	-1.847142	-2.057261	94.906514	-0.006928	-0.271637	0.012112	90.136993	0.972315	-1.208638	26.584167	2.388144	-18.350594	-33.425057	19.767530	5.758091	32.327004	20.375446	8.944096	4.157694	34.870388	22.129080	-2.054144	-3.727998	51.380323	33.731180	-20.910440	-7.906436	60.669360	49.974904
-1.245000	-1.847142	-2.057261	94.906514	-0.006913	-0.271608	0.012108	90.122270	0.970853	-1.179220	26.538455	2.392775	-18.324367	-33.378405	19.736602	5.754162	32.369039	20.373717	8.891263	4.158610	34.927935	22.127577	-2.129446	-3.738367	51.449634	33.735437	-20.948870	-7.897326	60.687041	49.953838
-1.235000	-1.847142	-2.057261	94.906514	-0.006899	-0.271581	0.012104	90.112879	0.969121	-1.152296	26.507673	2.391612	-18.298613	-33.351613	19.702904	5.752601	32.411520	20.381846	8.840939	4.161626	34.977913	22.127249	-2.187825	-3.748045	51.506738	33.728786	-20.991350	-7.892211	60.705158	49.913812
-1.225000	-1.847142	-2.057261	94.906514	-0.006889	-0.271562	0.012100	90.112450	0.967548	-1.135611	26.506143	2.387632	-18.284083	-33.356168	19.678247	5.756289	32.445733	20.393270	8.808832	4.166309	35.008636	22.121911	-2.210309	-3.756241	51.537450	33.708826	-21.023505	-7.891587	60.723085	49.863807
-1.215000	-1.847142	-2.057261	94.906514	-0.006883	-0.271554	0.012097	90.120017	0.966112	-1.132706	26.535964	2.386563	-18.287365	-33.391924	19.670879	5.765794	32.463370	20.403555	8.803439	4.172387	35.013229	22.110810	-2.192390	-3.763239	51.536943	33.679996	-21.036025	-7.894412	60.737565	49.814653
-1.205000	-1.847142	-2.057261	94.906514	-0.006879	-0.271558	0.012095	90.130562	0.964815	-1.141498	26.586419	2.393740	-18.307721	-33.446476	19.681527	5.778955	32.460983	20.412579	8.821246	4.179496	34.994237	22.100100	-2.146478	-3.770051	51.513000	33.652255	-21.029980	-7.898866	60.746380	49.776972
